<?xml version="1.0" encoding="UTF-8" standalone="no"?>
<svg
   xmlns:dc="http://purl.org/dc/elements/1.1/"
   xmlns:cc="http://creativecommons.org/ns#"
   xmlns:rdf="http://www.w3.org/1999/02/22-rdf-syntax-ns#"
   xmlns:svg="http://www.w3.org/2000/svg"
   xmlns="http://www.w3.org/2000/svg"
   xmlns:sodipodi="http://sodipodi.sourceforge.net/DTD/sodipodi-0.dtd"
   xmlns:inkscape="http://www.inkscape.org/namespaces/inkscape"
   inkscape:version="1.0 (4035a4fb49, 2020-05-01)"
   sodipodi:docname="nissan-corporate-logo.svg"
   xml:space="preserve"
   overflow="visible"
   viewBox="0 0 314 71.197678"
   height="71.197678"
   width="314"
   y="0px"
   x="0px"
   id="レイヤー_1"
   version="1.2"><metadata
   id="metadata51"><rdf:RDF><cc:Work
       rdf:about=""><dc:format>image/svg+xml</dc:format><dc:type
         rdf:resource="http://purl.org/dc/dcmitype/StillImage" /><dc:title></dc:title></cc:Work></rdf:RDF></metadata><defs
   id="defs49" /><sodipodi:namedview
   inkscape:current-layer="レイヤー_1"
   inkscape:window-maximized="1"
   inkscape:window-y="-9"
   inkscape:window-x="-9"
   inkscape:cy="19.5"
   inkscape:cx="86"
   inkscape:zoom="7.0232558"
   fit-margin-bottom="0"
   fit-margin-right="0"
   fit-margin-left="0"
   fit-margin-top="0"
   showgrid="false"
   id="namedview47"
   inkscape:window-height="1001"
   inkscape:window-width="1920"
   inkscape:pageshadow="2"
   inkscape:pageopacity="0"
   guidetolerance="10"
   gridtolerance="10"
   objecttolerance="10"
   borderopacity="1"
   bordercolor="#666666"
   pagecolor="#ffffff" />
<path
   style="stroke-width:1.82558"
   id="path2"
   d="m 34.138372,52.868837 c -4.563953,0 -9.474767,2.811396 -9.474767,9.000116 0,8.653256 7.229302,9.328721 9.438255,9.328721 2.22721,0 9.456512,-0.675465 9.456512,-9.328721 0.01826,-6.18872 -4.874302,-9.000116 -9.42,-9.000116 m 0,15.061047 c -2.537558,0 -5.513256,-1.57 -5.513256,-6.042675 0,-3.413837 2.208954,-5.695814 5.476744,-5.695814 3.286047,0 5.513256,2.281977 5.513256,5.695814 0,4.472675 -2.957442,6.042675 -5.476744,6.042675 z" />
<polyline
   transform="matrix(1.8255814,0,0,1.8255814,0,-10.040698)"
   id="polyline4"
   points="27.86,44.32 29.92,44.32 29.92,36.36 33.17,36.36 33.17,34.65 24.61,34.65 24.61,36.36 27.86,36.36 27.86,44.32   " />
<path
   style="stroke-width:1.82558"
   id="path6"
   d="m 71.617558,52.868837 c -4.563953,0 -9.456511,2.811396 -9.456511,9.000116 0,8.653256 7.229302,9.328721 9.438255,9.328721 2.22721,0 9.474768,-0.675465 9.474768,-9.328721 -0.01826,-6.18872 -4.910814,-9.000116 -9.456512,-9.000116 m 0,15.061047 c -2.537558,0 -5.513256,-1.57 -5.513256,-6.042675 0,-3.943256 2.756628,-5.695814 5.476745,-5.695814 3.304302,0 5.513255,2.281977 5.513255,5.695814 0,4.472675 -2.939186,6.042675 -5.476744,6.042675 z" />
<path
   style="stroke-width:1.82558"
   id="path8"
   d="m 95.42314,64.205698 c 2.501046,-0.602442 4.180581,-2.683605 4.180581,-5.202907 0,-4.801279 -3.943256,-5.805349 -7.247558,-5.805349 h -8.215116 v 17.653372 h 3.760697 v -5.805349 h 3.286047 l 4.217093,5.805349 h 4.691746 l -5.075118,-6.553837 0.401628,-0.09128 m -3.833721,-2.263721 h -3.632907 v -5.604535 h 3.541628 c 2.774883,0 4.125813,0.876279 4.125813,2.683605 0.01826,1.953372 -1.314418,2.92093 -4.034534,2.92093 z" />
<path
   style="stroke-width:1.82558"
   id="path10"
   d="m 121.8393,67.929884 c -4.03453,0 -6.53558,-2.263721 -6.53558,-5.914884 0,-3.797209 2.37326,-5.878372 6.69988,-5.878372 2.0264,0 3.50512,0.34686 4.78303,0.730232 v -3.286046 c -1.67954,-0.492907 -3.77896,-0.711977 -5.12989,-0.711977 -4.74651,0 -10.29627,2.391512 -10.29627,9.164419 0,5.823604 3.74244,9.164418 10.24151,9.164418 1.55174,0 3.48686,-0.200814 5.22116,-0.56593 v -3.505116 c -1.09535,0.328605 -2.88442,0.785 -4.89256,0.803256 h -0.0913" />
<path
   style="stroke-width:1.82558"
   id="path12"
   d="m 139.03628,52.868837 c -4.56395,0 -9.47477,2.811396 -9.47477,9.000116 0,8.653256 7.2293,9.328721 9.43826,9.328721 2.22721,0 9.47476,-0.675465 9.47476,-9.328721 0,-6.18872 -4.89255,-9.000116 -9.43825,-9.000116 m 0,15.061047 c -2.53756,0 -5.51326,-1.57 -5.51326,-6.042675 0,-3.943256 2.75663,-5.695814 5.47675,-5.695814 3.3043,0 5.51325,2.281977 5.51325,5.695814 0,4.472675 -2.95744,6.042675 -5.47674,6.042675 z" />
<path
   style="stroke-width:1.82558"
   id="path14"
   d="m 163.33477,64.205698 c 2.50104,-0.602442 4.18058,-2.683605 4.18058,-5.202907 0,-4.801279 -3.94326,-5.805349 -7.24756,-5.805349 h -8.21512 v 17.653372 h 3.7607 v -5.805349 h 3.28605 l 4.21709,5.805349 h 4.69175 l -5.07512,-6.553837 0.40163,-0.09128 m -3.81547,-2.263721 h -3.6329 v -5.604535 h 3.54162 c 2.77489,0 4.12582,0.876279 4.12582,2.683605 0,1.953372 -1.31442,2.92093 -4.03454,2.92093 z" />
<path
   style="stroke-width:1.82558"
   id="path16"
   d="m 179.72849,53.215698 h -8.10558 V 70.86907 h 3.76069 v -5.020349 h 4.36314 c 3.68768,0 7.61268,-1.661279 7.61268,-6.334768 0,-4.253604 -2.48279,-6.298255 -7.63093,-6.298255 m -0.36512,9.511279 h -3.97977 v -6.389535 h 3.90675 c 1.91686,0 4.12581,0.34686 4.12581,3.066977 -0.0182,2.92093 -2.04465,3.322558 -4.05279,3.322558 z" />
<path
   style="stroke-width:1.82558"
   id="path18"
   d="m 199.35349,52.868837 c -4.56396,0 -9.47477,2.811396 -9.47477,9.000116 0,8.653256 7.2293,9.328721 9.43826,9.328721 2.22721,0 9.47476,-0.675465 9.47476,-9.328721 0,-6.18872 -4.89255,-9.000116 -9.43825,-9.000116 m 0,15.061047 c -2.53756,0 -5.51326,-1.57 -5.51326,-6.042675 0,-3.413837 2.20896,-5.695814 5.47675,-5.695814 3.28604,0 5.51325,2.281977 5.51325,5.695814 0.0183,4.472675 -2.93918,6.042675 -5.47674,6.042675 z" />
<path
   style="stroke-width:1.82558"
   id="path20"
   d="m 223.67023,64.205698 c 2.50105,-0.602442 4.18058,-2.683605 4.18058,-5.202907 0,-4.801279 -3.94325,-5.805349 -7.24755,-5.805349 h -8.21512 v 17.653372 h 3.7607 v -5.805349 h 3.28604 l 4.2171,5.805349 h 4.69174 l -5.07512,-6.553837 0.40163,-0.09128 m -3.81546,-2.263721 h -3.63291 v -5.604535 h 3.54163 c 2.77488,0 4.12581,0.876279 4.12581,2.683605 0,1.953372 -1.31442,2.92093 -4.03453,2.92093 z" />
<path
   style="stroke-width:1.82558"
   id="path22"
   d="m 236.94221,53.215698 -6.62686,17.653372 h 3.74244 l 1.18663,-3.304303 h 8.87232 l 1.05884,3.304303 h 4.16233 l -6.75465,-17.653372 h -5.64105 m -0.6207,11.209069 3.28605,-8.671511 3.41384,8.671511 z" />
<polyline
   transform="matrix(1.8255814,0,0,1.8255814,0,-10.040698)"
   id="polyline24"
   points="139.28,44.32 141.34,44.32 141.34,36.36 144.59,36.36 144.59,34.65 136.03,34.65 136.03,36.36 139.28,36.36   139.28,44.32 " />
<rect
   style="stroke-width:1.82558"
   id="rect26"
   height="17.653372"
   width="3.7606976"
   y="53.215702"
   x="267.6485" />
<path
   style="stroke-width:1.82558"
   id="path28"
   d="m 284.66291,52.868837 c -4.56396,0 -9.45651,2.811396 -9.45651,9.000116 0,8.653256 7.2293,9.328721 9.43825,9.328721 2.22721,0 9.47477,-0.675465 9.47477,-9.328721 -0.0183,-6.18872 -4.91082,-9.000116 -9.45651,-9.000116 m 0,15.061047 c -2.53756,0 -5.51326,-1.57 -5.51326,-6.042675 0,-3.943256 2.75663,-5.695814 5.47675,-5.695814 3.28604,0 5.51325,2.281977 5.51325,5.695814 0,4.472675 -2.95744,6.042675 -5.47674,6.042675 z" />
<polyline
   transform="matrix(1.8255814,0,0,1.8255814,0,-10.040698)"
   id="polyline30"
   points="169.98,41.23 165.54,34.66 163.04,34.66 163.04,44.32 165.06,44.32 165.06,37.27 169.88,44.32 172,44.32   172,34.66 169.98,34.66 169.98,41.23 " />
<polyline
   transform="matrix(1.8255814,0,0,1.8255814,0,-10.040698)"
   id="polyline32"
   points="2.12,34.65 0,34.65 0,44.32 2.06,44.32 2.06,38.39 5.16,44.32 6.6,44.32 9.71,38.39 9.71,44.32 11.77,44.32   11.77,34.65 9.65,34.65 5.88,41.66 2.12,34.65 " />
<path
   style="stroke-width:1.82558"
   id="path34"
   d="M 182.2843,14.385581 H 160.925 c -0.96756,0 -2.04465,-0.07302 -2.55581,-0.219069 -1.89861,-0.511163 -2.79314,-2.172442 -2.79314,-3.870233 0,-1.460465 0.80325,-3.231279 2.82965,-3.851977 0.60244,-0.182558 1.18663,-0.200814 2.42802,-0.200814 h 30.30465 V 0 h -30.79756 c -1.20488,0 -2.19069,0.036512 -3.04872,0.1643023 -4.98383,0.693721 -8.59849,4.8560467 -8.59849,10.1502327 0,4.728256 3.04873,9.401744 8.4707,10.205 1.18663,0.182558 2.99396,0.146046 3.48686,0.146046 h 20.7021 c 0.29209,0 1.33267,0.01826 1.60651,0.05477 2.46453,0.34686 3.74244,2.245465 3.74244,4.363139 0,1.78907 -1.09535,3.833721 -3.52337,4.271861 -0.31035,0.05477 -1.4057,0.09128 -1.77082,0.09128 h -31.67383 v 6.316512 h 32.16674 c 0.38337,0 2.17244,-0.01826 2.53756,-0.05477 6.00616,-0.547674 9.14616,-5.458488 9.14616,-10.661395 0,-4.58221 -2.84791,-9.949419 -8.65325,-10.533605 -1.22314,-0.146046 -2.22721,-0.127791 -2.6471,-0.127791 z" />
<path
   style="stroke-width:1.82558"
   id="path36"
   d="M 121.14558,14.385581 H 99.786279 c -0.967558,0 -2.044651,-0.07302 -2.555814,-0.219069 -1.898605,-0.511163 -2.793139,-2.172442 -2.793139,-3.870233 0,-1.460465 0.803255,-3.231279 2.829651,-3.851977 C 97.869419,6.261744 98.453605,6.243488 99.695,6.243488 h 30.30465 V 0 H 99.202093 c -1.204884,0 -2.190698,0.036512 -3.048721,0.1643023 -4.983837,0.693721 -8.598488,4.8560467 -8.598488,10.1502327 0,4.728256 3.048721,9.401744 8.470697,10.205 1.186628,0.182558 2.993954,0.146046 3.486861,0.146046 h 20.702088 c 0.2921,0 1.33268,0.01826 1.60652,0.05477 2.46453,0.34686 3.74244,2.245465 3.74244,4.363139 0,1.78907 -1.09535,3.833721 -3.52337,4.271861 -0.31035,0.05477 -1.4057,0.09128 -1.77082,0.09128 H 88.595465 v 6.316512 h 32.166745 c 0.38337,0 2.17244,-0.01826 2.53756,-0.05477 6.00616,-0.547674 9.14616,-5.458488 9.14616,-10.661395 0,-4.58221 -2.86616,-9.949419 -8.65326,-10.533605 -1.22314,-0.146046 -2.2272,-0.127791 -2.64709,-0.127791 z" />
<rect
   style="stroke-width:1.82558"
   id="rect38"
   height="35.744884"
   width="6.8094187"
   y="8.8817842e-16"
   x="63.585003" />
<polygon
   transform="matrix(1.8255814,0,0,1.8255814,0,-10.040698)"
   id="polygon40"
   points="0,25.08 3.73,25.08 3.73,9.33 19.17,25.08 24.28,25.08 24.28,5.5 20.55,5.5 20.55,21.15 5.22,5.5 0,5.5 " />
<polygon
   transform="matrix(1.8255814,0,0,1.8255814,0,-10.040698)"
   id="polygon42"
   points="147.71,25.08 151.44,25.08 151.44,9.33 166.88,25.08 171.99,25.08 171.99,5.5 168.26,5.5 168.26,21.15 152.93,5.5 147.71,5.5 " />
<path
   style="stroke-width:1.82558"
   id="path44"
   d="m 227.04756,0 -22.08954,35.744884 h 8.3064 l 4.07105,-6.608605 h 27.43848 l 4.07105,6.608605 h 8.3064 L 235.08012,0 Z m -6.33477,23.440465 10.35105,-16.795349 10.33279,16.795349 z" />
</svg>
