<svg xmlns="http://www.w3.org/2000/svg" viewBox="9 78 252 264"><g transform="translate(.733 1.192) scale(.70667)"><linearGradient id="c" gradientUnits="userSpaceOnUse" x1="-4062.365" y1="275.141" x2="-3788.274" y2="275.141" gradientTransform="matrix(-.0029 -.8327 -.8275 .0029 406.56 -2936.028)"><stop offset="0" stop-color="#99a2a7"/><stop offset=".476" stop-color="#98a3a8"/><stop offset=".535" stop-color="#e6e6e6"/><stop offset="1" stop-color="#e6e6e6"/></linearGradient><path d="M189.445 125.191c88.874-.305 161.171 71.493 161.478 160.367.305 88.874-71.493 161.171-160.368 161.477-88.875.307-161.17-71.491-161.477-160.366-.306-88.876 71.493-161.172 160.367-161.478z" fill="url(#c)" stroke="#141414" stroke-width=".971" stroke-linecap="square"/><path d="M190.002 430.606c-38.598 0-74.885-15.027-102.177-42.322C60.532 360.995 45.5 324.705 45.5 286.115c0-38.602 15.032-74.887 42.325-102.176 27.292-27.294 63.579-42.323 102.177-42.323 38.599 0 74.885 15.029 102.177 42.323 27.294 27.29 42.32 63.574 42.32 102.176 0 38.59-15.028 74.875-42.32 102.17-27.292 27.294-63.578 42.321-102.177 42.321" fill="#141414"/><path d="M190.002 418.879c-35.466 0-68.807-13.81-93.883-38.886-25.08-25.078-38.89-58.42-38.89-93.879 0-35.465 13.81-68.806 38.89-93.883 25.076-25.075 58.417-38.889 93.883-38.889 35.466 0 68.807 13.814 93.884 38.889 25.08 25.077 38.89 58.42 38.89 93.883 0 35.461-13.81 68.803-38.89 93.88-25.077 25.075-58.418 38.885-93.884 38.885" fill="#fff"/></g><g transform="translate(.733 1.192) scale(.70667)"><linearGradient id="d" gradientUnits="userSpaceOnUse" x1="-3171.205" y1="1243.351" x2="-3054.946" y2="1136.977" gradientTransform="translate(4211.574 -1235.162) scale(1.3002)"><stop offset="0" stop-color="#151313"/><stop offset=".085" stop-color="#151313"/><stop offset=".128" stop-color="#f8f1f1"/><stop offset=".229" stop-color="#151313"/><stop offset=".304" stop-color="#141414"/><stop offset=".382" stop-color="#f8f1f1"/><stop offset=".45" stop-color="#151313"/><stop offset=".566" stop-color="#f8f1f4"/><stop offset=".627" stop-color="#141414"/><stop offset=".787" stop-color="#f8f1f1"/><stop offset="1" stop-color="#f8f1f2"/></linearGradient><path d="M290.795 349.896c-9.817-9.212-22.191-15.373-35.673-17.526a3.177 3.177 0 0 0-3.665 3.134v4.893c0 1.455-1.113 3.104-2.573 3.104-1.059 0-2.117.029-3.181 0-3.759-.058-4.441-4.676-3.688-7.396 8.014-28.737 9.973-46.169 9.879-58.86-.1-13.492-.437-26.932-6.517-44.726-5.859-17.117-11.207-33.877-39.498-59.492-1.921-1.732-3.864-2.573-6.452-2.76-2.782-.193-5.056-.292-7.887-.292-11.744 0-23.079 1.723-33.79 4.938-4.009 1.211-3.408 3.999-1.204 5.899 10.679 9.136 25.161 22.868 35.151 40.021-6.325.614-11.159-2.905-15.223-6.799-13.352-12.708-27.254-21.77-38.297-27.972-1.924-1.077-3.818-1.527-5.723-.433-12.172 7.078-20.374 13.736-30.037 24.944-1.644 1.906-.58 3.39 1.028 4.243 10.564 5.602 27.107 16.229 42.278 30.031-3.091 2.602-7.992 1.748-15.094-1.975-13.65-7.172-26.774-11.3-36.789-13.879-2.145-.549-4.443.052-5.548 1.971-6.413 11.142-10.838 24.47-12.931 37.985-.398 2.597 1.369 4.893 3.958 5.344 23.344 4.085 64.955 15.059 71.866 62.994.596 4.197-3.222 7.887-8.249 5.525-7.016-3.286-14.025-6.565-21.034-9.856-.737-.34-1.573-.632-2.38-.632H86.458c-4.701 0-6.636 4.495-3.579 7.997 7.95 9.154 15.241 19.032 21.478 29.504.551.929 1.182 1.285 2.263 1.285h14.435a5.01 5.01 0 0 0 2.671-.731c4.536-2.66 9.073-5.313 13.62-7.972.842-.503 1.683-.493 2.667-.493h108.8c1.461 0 2.644.942 2.644 2.405v5.354c0 1.947 1.741 3.426 3.665 3.129 13.481-2.153 25.856-8.314 35.673-17.52a3.683 3.683 0 0 0 0-5.386" fill="url(#d)" stroke="#141414" stroke-width="1.139"/><path d="M209.74 334.229c-10.718 0-19.392-8.68-19.392-19.377 0-10.71 8.674-19.386 19.392-19.386 10.69 0 19.38 8.676 19.38 19.386 0 10.697-8.69 19.377-19.38 19.377zm71.249 18.345c-7.36-6.003-15.118-9.885-24.54-11.838-.854-.176-1.269.152-1.269 1.03v.473c0 2.315-2.316 5.011-4.643 5.011h-6.119c-5.168 0-9.781-4.256-7.869-11.091 22.116-78.923-2.595-127.723-33.802-155.041-8.477-7.406-9.237-7.816-17.685-7.494-6.658.252-14.462 1.07-21.062 2.671-1.298.315-2.38 1.345-.666 2.783 16.018 13.497 37.432 36.763 47.674 72.978.352 1.258-.391 1.17-1.35 1.223-9.173.554-12.263-5.063-15.129-8.636-20.794-25.879-44.108-41.621-61.559-51.963-1.736-1.041-2.017-1.023-3.339-.25-7.015 4.05-14.889 10.516-20.437 16.398-1.157 1.245-.865 1.828.415 2.512 15.784 8.46 39.789 25.125 62.096 53.384 1.386 1.748 1.481 2.554.696 3.017-4.291 2.555-11.452 2.519-19.296-2.367-21.269-13.265-42.87-22.659-59.771-27.529-1.801-.525-2.116-.42-2.852 1.123-4.122 8.663-8.612 19.923-10.231 29.685-.205 1.274-.316 1.374.865 1.613 46.511 9.447 72.03 34.959 74.94 69.063.509 5.916-6.184 11.614-12.844 9.51-7.232-2.297-14.252-4.875-21.489-7.167a7.461 7.461 0 0 0-2.386-.369c-9.996-.006-20.005-.011-30.013-.011-1.333 0-2.116.836-.79 2.514 7.553 9.553 11.944 14.966 17.269 23.899.544.929 1.175 1.285 2.269 1.285 3.671 0 7.354-.007 11.043-.007 1.461 0 2.712-.337 3.981-1.086 4.005-2.345 7.985-4.531 11.99-6.881 1.273-.748 2.362-1.198 3.834-1.198 36.316-.012 75.24 0 111.549-.007 2.315 0 4.712 2.707 4.712 5.039v.803c0 .875.415 1.204 1.269 1.034 9.422-1.953 17.18-6.477 24.54-12.48.665-.551.665-1.077-.001-1.633" fill="#42bd3b" stroke="#141414" stroke-width="1.139"/><path d="M179.035 232.781c1.229 8.398-4.583 16.19-12.981 17.418-8.39 1.228-16.189-4.574-17.417-12.972-1.229-8.397 4.582-16.198 12.972-17.425 8.397-1.228 16.197 4.582 17.426 12.979" fill="#b7acad"/><path d="M166.299 219.828l-4.618 30.395c6.616.943 13.325-2.556 16.184-8.968 3.457-7.752-.021-16.823-7.766-20.277a15.375 15.375 0 0 0-3.8-1.15z" fill="#b7acad"/></g></svg>
